HIERARCHY
ROOT hip
{
  OFFSET 0 0 0
  CHANNELS 6 Xposition Yposition Zposition Zrotation Yrotation Xrotation
  JOINT abdomen
  {
    OFFSET 0 20.6881 -0.73152
    CHANNELS 3 Zrotation Xrotation Yrotation
    JOINT chest
    {
      OFFSET 0 11.7043 -0.48768
      CHANNELS 3 Zrotation Xrotation Yrotation
      JOINT neck
      {
        OFFSET 0 22.1894 -2.19456
        CHANNELS 3 Zrotation Xrotation Yrotation
        JOINT head
        {
          OFFSET -0.24384 7.07133 1.2192
          CHANNELS 3 Zrotation Xrotation Yrotation
          JOINT leftEye
          {
            OFFSET 4.14528 8.04674 8.04672
            CHANNELS 3 Zrotation Xrotation Yrotation
            End Site
            {
              OFFSET 1 0 0
            }
          }
          JOINT rightEye
          {
            OFFSET -3.6576 8.04674 8.04672
            CHANNELS 3 Zrotation Xrotation Yrotation
            End Site
            {
              OFFSET 1 0 0
            }
          }
        }
      }
      JOINT rCollar
      {
        OFFSET -2.68224 19.2634 -4.8768
        CHANNELS 3 Zrotation Xrotation Yrotation
        JOINT rShldr
        {
          OFFSET -8.77824 -1.95073 1.46304
          CHANNELS 3 Zrotation Xrotation Yrotation
          JOINT rForeArm
          {
            OFFSET -28.1742 -1.7115 0.48768
            CHANNELS 3 Zrotation Xrotation Yrotation
            JOINT rHand
            {
              OFFSET -22.5879 0.773209 7.07136
              CHANNELS 3 Zrotation Xrotation Yrotation
              JOINT rThumb1
              {
                OFFSET -1.2192 -0.487915 3.41376
                CHANNELS 3 Zrotation Xrotation Yrotation
                JOINT rThumb2
                {
                  OFFSET -3.37035 -0.52449 3.41376
                  CHANNELS 3 Zrotation Xrotation Yrotation
                  End Site
                  {
                    OFFSET -1.78271 -1.18214 1.43049
                  }
                }
              }
              JOINT rIndex1
              {
                OFFSET -7.75947 0.938293 5.60832
                CHANNELS 3 Zrotation Xrotation Yrotation
                JOINT rIndex2
                {
                  OFFSET -2.54057 -0.884171 1.56538
                  CHANNELS 3 Zrotation Xrotation Yrotation
                  End Site
                  {
                    OFFSET -1.62519 -0.234802 1.16502
                  }
                }
              }
              JOINT rMid1
              {
                OFFSET -8.24714 1.18213 3.41376
                CHANNELS 3 Zrotation Xrotation Yrotation
                JOINT rMid2
                {
                  OFFSET -3.10165 -0.590103 1.0647
                  CHANNELS 3 Zrotation Xrotation Yrotation
                  End Site
                  {
                    OFFSET -2.48547 -0.328903 0.83742
                  }
                }
              }
              JOINT rRing1
              {
                OFFSET -8.82822 0.546677 1.51678
                CHANNELS 3 Zrotation Xrotation Yrotation
                JOINT rRing2
                {
                  OFFSET -2.60934 -0.819778 -0.0198488
                  CHANNELS 3 Zrotation Xrotation Yrotation
                  End Site
                  {
                    OFFSET -2.33842 -0.294052 0.168128
                  }
                }
              }
              JOINT rPinky1
              {
                OFFSET -8.27202 -0.0477905 -0.4584
                CHANNELS 3 Zrotation Xrotation Yrotation
                JOINT rPinky2
                {
                  OFFSET -1.82734 -0.647385 -0.700984
                  CHANNELS 3 Zrotation Xrotation Yrotation
                  End Site
                  {
                    OFFSET -1.69225 -0.51767 -0.607171
                  }
                }
              }
            }
          }
        }
      }
      JOINT lCollar
      {
        OFFSET 2.68224 19.2634 -4.8768
        CHANNELS 3 Zrotation Xrotation Yrotation
        JOINT lShldr
        {
          OFFSET 8.77824 -1.95073 1.46304
          CHANNELS 3 Zrotation Xrotation Yrotation
          JOINT lForeArm
          {
            OFFSET 28.1742 -1.7115 0.48768
            CHANNELS 3 Zrotation Xrotation Yrotation
            JOINT lHand
            {
              OFFSET 22.5879 0.773209 7.07136
              CHANNELS 3 Zrotation Xrotation Yrotation
              JOINT lThumb1
              {
                OFFSET 1.2192 -0.487915 3.41376
                CHANNELS 3 Zrotation Xrotation Yrotation
                JOINT lThumb2
                {
                  OFFSET 3.37035 -0.52449 3.41376
                  CHANNELS 3 Zrotation Xrotation Yrotation
                  End Site
                  {
                    OFFSET 1.78271 -1.18214 1.43049
                  }
                }
              }
              JOINT lIndex1
              {
                OFFSET 7.75947 0.938293 5.60832
                CHANNELS 3 Zrotation Xrotation Yrotation
                JOINT lIndex2
                {
                  OFFSET 2.54057 -0.884171 1.56538
                  CHANNELS 3 Zrotation Xrotation Yrotation
                  End Site
                  {
                    OFFSET 1.62519 -0.234802 1.16502
                  }
                }
              }
              JOINT lMid1
              {
                OFFSET 8.24714 1.18213 3.41376
                CHANNELS 3 Zrotation Xrotation Yrotation
                JOINT lMid2
                {
                  OFFSET 3.10165 -0.590103 1.0647
                  CHANNELS 3 Zrotation Xrotation Yrotation
                  End Site
                  {
                    OFFSET 2.48547 -0.328903 0.83742
                  }
                }
              }
              JOINT lRing1
              {
                OFFSET 8.82822 0.546677 1.51678
                CHANNELS 3 Zrotation Xrotation Yrotation
                JOINT lRing2
                {
                  OFFSET 2.60934 -0.819778 -0.0198488
                  CHANNELS 3 Zrotation Xrotation Yrotation
                  End Site
                  {
                    OFFSET 2.33842 -0.294052 0.168128
                  }
                }
              }
              JOINT lPinky1
              {
                OFFSET 8.27202 -0.0477905 -0.4584
                CHANNELS 3 Zrotation Xrotation Yrotation
                JOINT lPinky2
                {
                  OFFSET 1.82734 -0.647385 -0.700984
                  CHANNELS 3 Zrotation Xrotation Yrotation
                  End Site
                  {
                    OFFSET 1.69225 -0.51767 -0.607171
                  }
                }
              }
            }
          }
        }
      }
    }
  }
  JOINT rButtock
  {
    OFFSET -8.77824 4.35084 1.2192
    CHANNELS 3 Zrotation Xrotation Yrotation
    JOINT rThigh
    {
      OFFSET 0 -1.70687 -2.19456
      CHANNELS 3 Zrotation Xrotation Yrotation
      JOINT rShin
      {
        OFFSET 0 -36.8199 0.73152
        CHANNELS 3 Zrotation Xrotation Yrotation
        JOINT rFoot
        {
          OFFSET 0.73152 -45.1104 -5.12064
          CHANNELS 3 Zrotation Xrotation Yrotation
          End Site
          {
            OFFSET -1.1221 -3.69964 12.103
          }
        }
      }
    }
  }
  JOINT lButtock
  {
    OFFSET 8.77824 4.35084 1.2192
    CHANNELS 3 Zrotation Xrotation Yrotation
    JOINT lThigh
    {
      OFFSET 0 -1.70687 -2.19456
      CHANNELS 3 Zrotation Xrotation Yrotation
      JOINT lShin
      {
        OFFSET 0 -36.8199 0.73152
        CHANNELS 3 Zrotation Xrotation Yrotation
        JOINT lFoot
        {
          OFFSET -0.73152 -45.1104 -5.12064
          CHANNELS 3 Zrotation Xrotation Yrotation
          End Site
          {
            OFFSET 1.1221 -3.69964 12.103
          }
        }
      }
    }
  }
}
MOTION
Frames:	4
Frame Time:	0.00833333
-45.7378 83.7568 -29.255 -374.632 80.1954 -360.623 -5.90778 14.602 5.62304 -0.795234 -4.39375 1.40393 3.32689 5.75512 5.07284 -10.9178 9.80097 11.9464 -0.0 0.0 0.0 -0.0 0.0 0.0 -1.26118e-14 1.2587e-12 8.04084e-14 49.9594 61.9787 26.4997 -23.327 -17.8901 47.546 -0.126094 -10.0734 -1.43064 -1.62848e-10 -6.96252e-10 -1.2597e-09 -2.6581e-10 -1.20988e-09 -2.18099e-09 -1.6285e-10 -6.96252e-10 -1.25971e-09 7.73091 5.47488 0.417314 -1.62847e-10 -6.96254e-10 -1.2597e-09 2.90554 0.965183 0.102902 -1.62842e-10 -6.96255e-10 -1.2597e-09 10.2786 0.731801 0.0259123 -1.62854e-10 -6.96254e-10 -1.25969e-09 2.22167 -0.733487 -0.20892 -1.28335e-14 1.2587e-12 8.01599e-14 -31.599 45.1045 -52.8498 15.9424 -8.63379 -29.5511 0.135112 10.4225 -1.48133 -1.22266e-09 -1.47367e-09 -2.82481e-10 -2.11916e-09 -2.5572e-09 -4.7462e-10 -1.22266e-09 -1.47366e-09 -2.82456e-10 -7.73091 5.47488 -0.417314 -1.22266e-09 -1.47367e-09 -2.82484e-10 -2.90554 0.965183 -0.102902 -1.22266e-09 -1.47367e-09 -2.82485e-10 -10.2786 0.731801 -0.0259123 -1.22266e-09 -1.47367e-09 -2.82497e-10 -2.22167 -0.733487 0.20892 -2.03217e-16 0.0 -3.88251e-19 -3.37346 -23.238 9.22507 -0.0069188 16.6183 0.273828 -1.81278 -5.5926 -8.24789 2.03217e-16 0.0 3.88251e-19 7.58026 -28.5257 -4.67083 0.151701 25.1892 -0.390102 3.65022 -10.3336 10.7221
-45.7044 83.7562 -29.2535 -374.808 80.3424 -360.788 -5.89911 14.5987 5.45484 -0.804253 -4.35891 1.35747 3.31618 5.78929 5.12599 -10.8438 9.79099 12.0439 -0.0 0.0 0.0 -0.0 0.0 0.0 -1.98612e-14 1.98609e-12 1.36737e-13 50.5103 62.3539 25.7443 -23.6843 -18.5234 48.5897 -0.130706 -10.2521 -1.45658 -1.16745e-10 -8.33727e-10 -1.54979e-09 -1.83965e-10 -1.4488e-09 -2.68307e-09 -1.16743e-10 -8.33729e-10 -1.5498e-09 7.73091 5.47488 0.417314 -1.16744e-10 -8.33729e-10 -1.54979e-09 2.90554 0.965183 0.102902 -1.16738e-10 -8.3373e-10 -1.5498e-09 10.2786 0.731801 0.0259123 -1.16751e-10 -8.3373e-10 -1.54978e-09 2.22167 -0.733487 -0.20892 -2.00224e-14 1.98609e-12 1.36512e-13 -31.7997 44.9911 -52.6412 15.9595 -8.64965 -29.5871 0.14162 10.6832 -1.51916 -1.08505e-09 -1.12778e-09 -5.41461e-10 -1.88324e-09 -1.95904e-09 -9.24312e-10 -1.08505e-09 -1.12778e-09 -5.41438e-10 -7.73091 5.47488 -0.417314 -1.08505e-09 -1.12778e-09 -5.41464e-10 -2.90554 0.965183 -0.102902 -1.08505e-09 -1.12778e-09 -5.41464e-10 -10.2786 0.731801 -0.0259123 -1.08504e-09 -1.12778e-09 -5.41475e-10 -2.22167 -0.733487 0.20892 -2.03217e-16 0.0 -3.88251e-19 -3.39578 -23.1875 9.19173 -0.00706386 16.6217 0.274458 -1.8265 -5.57809 -8.32989 2.03217e-16 0.0 3.88251e-19 7.53823 -28.5219 -4.7575 0.151562 25.1873 -0.389927 3.63427 -10.3525 10.6577
-45.68 83.7552 -29.2589 -374.72 80.4827 -360.685 -5.87546 14.6124 5.20303 -0.807833 -4.32616 1.28804 3.25929 5.83547 5.21788 -10.7723 9.85489 12.2413 -0.0 0.0 0.0 -0.0 0.0 0.0 -2.98281e-14 2.95565e-12 2.12967e-13 50.8938 62.8061 25.2387 -24.0547 -19.2075 49.7195 -0.135621 -10.4386 -1.48368 -2.95334e-11 -1.01031e-09 -1.92076e-09 -3.10849e-11 -1.75541e-09 -3.32491e-09 -2.95231e-11 -1.01032e-09 -1.92077e-09 7.73091 5.47488 0.417314 -2.95317e-11 -1.01032e-09 -1.92076e-09 2.90554 0.965183 0.102902 -2.95258e-11 -1.01032e-09 -1.92076e-09 10.2786 0.731801 0.0259123 -2.9539e-11 -1.01032e-09 -1.92075e-09 2.22167 -0.733487 -0.20892 -2.98807e-14 2.95564e-12 2.12771e-13 -32.1917 44.7951 -52.2431 15.9831 -8.67153 -29.6369 0.153547 11.1256 -1.58362 -6.55977e-10 -3.08395e-10 -9.42146e-10 -1.14409e-09 -5.40347e-10 -1.62259e-09 -6.55977e-10 -3.08391e-10 -9.42127e-10 -7.73091 5.47488 -0.417314 -6.55976e-10 -3.08393e-10 -9.42148e-10 -2.90554 0.965183 -0.102902 -6.55981e-10 -3.08393e-10 -9.42147e-10 -10.2786 0.731801 -0.0259123 -6.55974e-10 -3.08395e-10 -9.42154e-10 -2.22167 -0.733487 0.20892 -2.03217e-16 0.0 -3.88251e-19 -3.40401 -23.1061 9.19763 -0.00775606 16.6028 0.274838 -1.84214 -5.53775 -8.43657 2.03217e-16 0.0 3.88251e-19 7.50082 -28.5057 -4.8476 0.151369 25.1884 -0.389784 3.61947 -10.3703 10.5984
-45.6402 83.7574 -29.2496 -374.804 80.6049 -360.801 -5.84476 14.6374 4.94721 -0.801649 -4.29857 1.21784 3.18504 5.87942 5.31374 -10.7223 9.93562 12.4553 -0.0 0.0 0.0 -0.0 0.0 0.0 -4.09629e-14 3.77462e-12 2.75782e-13 51.2001 63.225 24.8923 -24.3811 -19.8326 50.7895 -0.138968 -10.564 -1.50192 7.47326e-11 -1.14752e-09 -2.20691e-09 1.50329e-10 -1.9934e-09 -3.81965e-09 7.47502e-11 -1.14753e-09 -2.20693e-09 7.73091 5.47488 0.417314 7.47348e-11 -1.14753e-09 -2.20691e-09 2.90554 0.965183 0.102902 7.47405e-11 -1.14753e-09 -2.20691e-09 10.2786 0.731801 0.0259123 7.47266e-11 -1.14753e-09 -2.2069e-09 2.22167 -0.733487 -0.20892 -4.09083e-14 3.7746e-12 2.75614e-13 -32.6028 44.5913 -51.8232 16.0108 -8.69728 -29.6955 0.16681 11.5775 -1.64975 -1.59278e-10 5.56118e-10 -1.26898e-09 -2.87242e-10 9.57088e-10 -2.19387e-09 -1.59279e-10 5.5612e-10 -1.26896e-09 -7.73091 5.47488 -0.417314 -1.59278e-10 5.56119e-10 -1.26898e-09 -2.90554 0.965183 -0.102902 -1.59284e-10 5.56119e-10 -1.26898e-09 -10.2786 0.731801 -0.0259123 -1.59277e-10 5.56119e-10 -1.26898e-09 -2.22167 -0.733487 0.20892 -2.03217e-16 0.0 -3.88251e-19 -3.39981 -23.0175 9.2141 -0.00862323 16.5738 0.275105 -1.85636 -5.49426 -8.53874 2.03217e-16 0.0 3.88251e-19 7.4755 -28.4854 -4.93216 0.151214 25.1929 -0.389725 3.60755 -10.3877 10.5485
